Title: SHREK THE THIRD (2007) 
Directors:Chris Miller
Raman Hui (co-director)
Release Date:1 June 2007 (India) 
Language : Hindi
Genre:Animation | Adventure | Comedy | Family | Fantasy
Format : MPEG-PS 
File size : 751 MiB 
Duration : 41mn 43s 
Overall bit rate : 2 515 Kbps 
Country:USA


Cast :

Mike Myers ...  Shrek (voice) 
Eddie Murphy ...  Donkey (voice) 
Cameron Diaz ...  Princess Fiona (voice) 
Antonio Banderas ...  Puss in Boots (voice) 
Julie Andrews ...  Queen (voice) 
John Cleese ...  King (voice) 
Rupert Everett ...  Prince Charming (voice) 
Eric Idle ...  Merlin (voice) 
Justin Timberlake ...  Artie (voice) 
Susanne Blakeslee ...  Evil Queen (voice) 
Cody Cameron ...  Pinocchio / Three Pigs (voice) 
Larry King ...  Doris (voice) 
Christopher Knights ...  Blind Mice / Heckler / Evil Tree #2 / Guard #2 (voice) 
John Krasinski ...  Lancelot (voice) 
Ian McShane ...  Captain Hook (voice)


Plot :

 When his new father-in-law, King Harold falls ill, Shrek is looked at as the heir to the land
 of Far, Far Away. Not one to give up his beloved swamp, Shrek recruits his friends Donkey
 and Puss in Boots to install the rebellious Artie as the new king. Princess Fiona, however,
 rallies a band of royal girlfriends to fend off a coup d'etat by the jilted Prince Charming. 



Video :
 
ID : 224 (0xE0) 
Format : MPEG Video 
Format version : Version 2 
Format settings, BVOP : Yes 
Format settings, Matrix : Default 
Duration : 41mn 43s 
Bit rate mode : Constant 
Bit rate : 2 241 Kbps 
Nominal bit rate : 1 120 Kbps 
Width : 352 pixels 
Height : 288 pixels 
Display aspect ratio : 1.222 
Frame rate : 25.000 fps 
Standard : PAL 
Color space : YUV 
Bit depth : 8 bits 
Scan type : Progressive 
Bits/(Pixel*Frame) : 0.884 
Stream size : 669 MiB (89%) 

Audio 
ID : 192 (0xC0) 
Format : MPEG Audio 
Format version : Version 1 
Format profile : Layer 2 
Duration : 41mn 42s 
Bit rate mode : Constant 
Bit rate : 224 Kbps 
Channel(s) : 2 channels 
Sampling rate : 48.0 KHz 
Video delay : -80ms 
Stream size : 66.8 MiB (9%)